# xmcd
#
# Track frame offsets:
#	150
#	15462
#	33697
#	51832
#	72132
#	87841
#	106567
#	123225
#	138556
#	151561
#	167550
#	185030
#
# Disc length: 2695 seconds
#
# Revision: 0
# Processed by: cddbd v1.5.1PL0 Copyright (c) Steve Scherf et al.
# Submitted via: dBpowerAMP V4.0
#
DISCID=900a850c
DTITLE=Reba McEntire - Room To Breathe
DYEAR=1900
DGENRE=
TTITLE0=Secret
TTITLE1=If I Had Any Sense Left at All
TTITLE2=My Sister
TTITLE3=Once You've Learned to Be Lonely
TTITLE4=Moving Oleta
TTITLE5=Love Revival
TTITLE6=He Gets That From Me
TTITLE7=I'm Gonna Take That Mountain
TTITLE8=Room to Breathe
TTITLE9=Sky Full of Angels
TTITLE10=Somebody
TTITLE11=It Just Had to Be This Way
EXTD=
EXTT0=
EXTT1=
EXTT2=
EXTT3=
EXTT4=
EXTT5=
EXTT6=
EXTT7=
EXTT8=
EXTT9=
EXTT10=
EXTT11=
PLAYORDER=
